<?xml version="1.0" standalone="no"?>
<!DOCTYPE svg PUBLIC "-//W3C//DTD SVG 20010904//EN"
 "http://www.w3.org/TR/2001/REC-SVG-20010904/DTD/svg10.dtd">
<svg version="1.0" xmlns="http://www.w3.org/2000/svg"
 width="120.000000pt" height="120.000000pt" viewBox="0 0 120.000000 120.000000"
 preserveAspectRatio="xMidYMid meet">
<metadata>
Created by potrace 1.14, written by Peter Selinger 2001-2017
</metadata>
<g transform="translate(0.000000,120.000000) scale(0.100000,-0.100000)"
fill="#000000" stroke="none">
<path d="M62 1160 c7 -10 17 -16 23 -12 5 3 3 -3 -5 -14 -8 -10 -11 -16 -6
-12 5 4 15 1 22 -7 17 -17 18 -28 2 -19 -7 4 -2 -5 12 -18 14 -14 29 -23 34
-20 5 3 6 -7 2 -22 -5 -19 -3 -26 9 -26 8 0 15 -5 15 -11 0 -5 6 -7 13 -3 8 5
8 2 -2 -9 -12 -15 -11 -17 2 -17 9 0 19 -5 23 -12 4 -6 3 -8 -3 -5 -5 3 -10 0
-10 -9 0 -9 7 -12 19 -8 13 4 16 1 12 -10 -4 -10 1 -18 11 -22 13 -5 14 -9 3
-15 -10 -7 -11 -9 0 -9 7 0 10 -6 7 -12 -4 -7 1 -4 10 7 17 20 17 20 10 -2 -4
-16 -2 -23 7 -23 10 0 9 -3 -2 -10 -12 -8 -12 -10 5 -10 17 0 18 -2 5 -11 -12
-9 -10 -10 8 -6 19 5 21 3 11 -9 -9 -11 -9 -14 0 -14 7 0 9 -5 5 -12 -5 -7 -2
-9 7 -6 10 4 15 -1 16 -13 2 -24 28 -51 39 -41 5 4 2 -2 -6 -12 -10 -13 -10
-17 -2 -12 8 5 12 1 12 -12 0 -11 8 -26 17 -33 14 -12 16 -12 8 0 -5 10 -4 12
4 7 9 -6 9 -11 -1 -24 -8 -10 -9 -13 -1 -9 6 4 14 3 18 -2 3 -6 13 -8 23 -5
14 5 14 4 2 -4 -8 -6 -18 -8 -23 -5 -5 3 -1 -7 9 -23 17 -27 17 -28 1 -15 -15
12 -17 12 -12 -1 4 -9 -1 -22 -9 -30 -11 -12 -12 -18 -3 -27 9 -9 8 -11 -7 -5
-15 6 -17 4 -11 -6 6 -10 4 -12 -9 -7 -9 4 -14 3 -11 -2 3 -5 0 -13 -6 -16 -5
-4 -8 -14 -5 -22 3 -8 2 -11 -3 -8 -5 3 -12 1 -16 -5 -3 -5 0 -10 7 -10 7 -1
1 -8 -14 -16 -16 -8 -28 -17 -28 -20 0 -2 9 0 20 6 11 6 20 8 20 6 0 -3 -12
-12 -27 -20 -16 -9 -21 -16 -13 -16 12 0 11 -4 -4 -15 -10 -8 -23 -12 -29 -8
-6 4 -7 1 -1 -8 15 -24 13 -38 -4 -32 -10 4 -13 2 -8 -5 4 -7 2 -12 -4 -12 -6
0 -8 -5 -4 -12 5 -8 2 -9 -10 -5 -14 5 -15 3 -6 -13 11 -21 -2 -36 -22 -24 -8
5 -8 1 2 -12 8 -10 10 -16 6 -12 -13 11 -45 -30 -41 -52 2 -12 -1 -17 -9 -14
-8 3 -16 -4 -19 -16 -3 -14 -10 -19 -17 -15 -9 5 -8 0 1 -16 12 -23 11 -23 -6
-9 -13 10 -16 11 -11 2 5 -8 1 -19 -10 -28 -11 -9 -13 -13 -7 -9 8 4 11 1 7
-9 -3 -8 -13 -12 -22 -9 -15 4 -15 3 -2 -6 18 -13 763 -15 755 -1 -3 4 0 10 5
12 6 2 12 13 13 26 1 15 6 21 16 17 12 -5 12 -3 0 12 -9 11 -10 14 -1 9 7 -4
12 -2 12 4 0 6 5 8 13 4 9 -6 9 -4 -1 8 -15 18 -1 34 20 23 7 -4 4 1 -6 9 -19
16 -19 16 3 16 19 0 21 3 12 14 -9 11 -9 16 0 22 8 5 9 3 4 -6 -6 -9 -4 -11 4
-6 7 5 10 14 7 22 -3 7 3 19 13 26 19 14 46 58 36 58 -4 0 1 7 9 16 9 8 14 20
11 25 -4 5 1 9 9 9 9 0 16 5 16 11 0 5 -4 8 -9 4 -5 -3 -13 0 -17 6 -4 7 -3 9
4 5 6 -3 22 6 36 21 20 22 23 30 13 42 -10 12 -9 14 7 8 16 -6 17 -5 6 8 -11
13 -11 16 1 13 8 -2 14 5 14 17 0 13 7 19 18 19 13 -2 15 1 7 11 -8 9 -6 14 5
19 13 5 14 10 4 28 l-12 23 23 -20 23 -20 -12 24 c-10 18 -10 25 0 35 6 6 9 6
6 1 -3 -6 -2 -17 3 -24 5 -9 7 -3 7 17 -1 24 -5 29 -18 22 -11 -6 -16 -5 -16
5 0 8 5 12 11 9 6 -3 3 1 -8 10 -10 8 -16 21 -13 29 3 7 -1 14 -9 14 -7 0 -10
-5 -7 -10 3 -6 1 -7 -5 -3 -6 4 -8 14 -5 23 4 10 2 14 -4 10 -6 -4 -14 0 -17
9 -4 10 -2 13 7 9 6 -4 1 3 -13 15 -14 12 -19 19 -12 15 6 -3 12 -1 12 4 0 6
-7 11 -15 11 -8 0 -15 9 -15 20 0 11 -5 20 -11 20 -5 0 -7 -5 -3 -12 4 -7 3
-8 -4 -4 -6 4 -8 14 -5 23 4 10 2 14 -5 9 -6 -3 -13 -2 -16 3 -4 5 -1 13 5 17
8 5 9 3 4 -6 -6 -9 -4 -11 4 -5 9 5 6 15 -13 34 -15 15 -23 31 -19 36 5 5 0 4
-9 -3 -14 -11 -16 -11 -11 6 3 14 -2 21 -18 25 -19 5 -20 8 -9 21 9 12 9 16 1
16 -7 0 -9 5 -5 13 5 8 2 8 -9 -2 -18 -14 -21 -10 -17 24 1 11 -1 17 -6 13 -4
-4 -13 0 -20 10 -9 13 -10 20 -1 31 9 12 9 13 0 7 -8 -4 -13 -1 -13 8 0 9 -5
16 -11 16 -5 0 -7 6 -3 13 5 7 0 6 -11 -3 -10 -8 -16 -10 -12 -4 4 7 0 15 -9
18 -15 6 -15 9 2 28 19 21 19 21 -6 8 -22 -12 -24 -12 -12 2 7 9 9 19 4 22 -5
3 -174 6 -376 5 -356 0 -365 0 -354 -19z m919 -297 c13 -16 12 -17 -3 -4 -10
7 -18 15 -18 17 0 8 8 3 21 -13z m79 -436 c0 -2 -10 -12 -21 -23 -22 -19 -22
-19 -8 4 12 19 29 30 29 19z"/>
</g>
</svg>
